<svg xmlns="http://www.w3.org/2000/svg" xmlns:xlink="http://www.w3.org/1999/xlink" viewBox="0 0 2586.99 2691.84"><defs><style>.cls-1{isolation:isolate;}.cls-2{fill:url(#linear-gradient);}.cls-3{fill:url(#linear-gradient-2);}.cls-4{fill:url(#linear-gradient-3);}.cls-5{clip-path:url(#clip-path);}.cls-6{fill:url(#linear-gradient-4);}.cls-10,.cls-13,.cls-14,.cls-15,.cls-68,.cls-7,.cls-8{mix-blend-mode:multiply;}.cls-7{fill:url(#radial-gradient);}.cls-8{fill:url(#radial-gradient-2);}.cls-9{fill:url(#linear-gradient-5);}.cls-10{fill:url(#radial-gradient-3);}.cls-11{fill:url(#radial-gradient-4);}.cls-12{fill:url(#linear-gradient-6);}.cls-13{fill:url(#linear-gradient-7);}.cls-14{fill:url(#radial-gradient-5);}.cls-15{fill:url(#radial-gradient-6);}.cls-16,.cls-31,.cls-33,.cls-34,.cls-38,.cls-40,.cls-41,.cls-45,.cls-47,.cls-48,.cls-51,.cls-52,.cls-53,.cls-56,.cls-57,.cls-58,.cls-61,.cls-62,.cls-63,.cls-71,.cls-72,.cls-73,.cls-82,.cls-83,.cls-84,.cls-85{mix-blend-mode:screen;}.cls-16{fill:url(#radial-gradient-7);}.cls-17{fill:url(#radial-gradient-8);}.cls-18{fill:url(#radial-gradient-9);}.cls-19{fill:url(#radial-gradient-10);}.cls-20{fill:url(#radial-gradient-11);}.cls-21{fill:url(#radial-gradient-12);}.cls-22{fill:url(#radial-gradient-13);}.cls-23{fill:url(#radial-gradient-14);}.cls-24{fill:url(#radial-gradient-15);}.cls-25{fill:url(#radial-gradient-16);}.cls-26{fill:#1c1c1c;}.cls-27{fill:url(#linear-gradient-8);}.cls-28{fill:url(#linear-gradient-9);}.cls-29{fill:#242424;}.cls-30{fill:#00b038;}.cls-31{fill:url(#linear-gradient-10);}.cls-32{fill:#00c940;}.cls-33{fill:url(#linear-gradient-11);}.cls-34{fill:url(#linear-gradient-12);}.cls-35{fill:url(#linear-gradient-13);}.cls-36{fill:url(#linear-gradient-14);}.cls-37{fill:#f3b300;}.cls-38{fill:url(#linear-gradient-15);}.cls-39{fill:#ffcc40;}.cls-40{fill:url(#linear-gradient-16);}.cls-41{fill:url(#linear-gradient-17);}.cls-42{fill:url(#linear-gradient-18);}.cls-43{fill:url(#linear-gradient-19);}.cls-44{fill:#d60000;}.cls-45{fill:url(#linear-gradient-20);}.cls-46{fill:red;}.cls-47{fill:url(#linear-gradient-21);}.cls-48{fill:url(#linear-gradient-22);}.cls-49{fill:url(#linear-gradient-23);}.cls-50{fill:url(#linear-gradient-24);}.cls-51{fill:url(#linear-gradient-25);}.cls-52{fill:url(#linear-gradient-26);}.cls-53{fill:url(#linear-gradient-27);}.cls-54{fill:url(#linear-gradient-28);}.cls-55{fill:url(#linear-gradient-29);}.cls-56{fill:url(#linear-gradient-30);}.cls-57{fill:url(#linear-gradient-31);}.cls-58{fill:url(#linear-gradient-32);}.cls-59{fill:url(#linear-gradient-33);}.cls-60{fill:url(#linear-gradient-34);}.cls-61{fill:url(#linear-gradient-35);}.cls-62{fill:url(#linear-gradient-36);}.cls-63{fill:url(#linear-gradient-37);}.cls-64{fill:url(#linear-gradient-38);}.cls-65{fill:url(#linear-gradient-39);}.cls-66{fill:#3b3b3b;}.cls-67{fill:url(#linear-gradient-40);}.cls-68{fill:url(#linear-gradient-41);}.cls-69{fill:url(#linear-gradient-42);}.cls-70{mix-blend-mode:overlay;fill:url(#radial-gradient-17);}.cls-71{fill:url(#radial-gradient-18);}.cls-72{fill:url(#radial-gradient-19);}.cls-74{fill:url(#linear-gradient-43);}.cls-75{fill:url(#linear-gradient-44);}.cls-76{fill:url(#linear-gradient-45);}.cls-77{fill:url(#linear-gradient-46);}.cls-78{fill:url(#linear-gradient-47);}.cls-79{fill:url(#linear-gradient-48);}.cls-80{fill:url(#linear-gradient-49);}.cls-81{fill:url(#linear-gradient-50);}.cls-82{fill:url(#radial-gradient-20);}.cls-83{fill:url(#radial-gradient-21);}.cls-84{fill:url(#linear-gradient-51);}.cls-85{fill:url(#linear-gradient-52);}</style><linearGradient id="linear-gradient" x1="132.7" y1="2499.97" x2="132.7" gradientUnits="userSpaceOnUse"><stop offset="0.07"/><stop offset="0.11" stop-color="#595959"/><stop offset="0.16"/><stop offset="0.18"/><stop offset="0.21" stop-color="#545454"/><stop offset="0.24"/><stop offset="0.81"/><stop offset="0.84" stop-color="#787878"/><stop offset="0.88"/><stop offset="0.93"/><stop offset="0.98" stop-color="#3b3b3b"/><stop offset="1"/></linearGradient><linearGradient id="linear-gradient-2" x1="2164.29" y1="2499.97" x2="2164.29" xlink:href="#linear-gradient"/><linearGradient id="linear-gradient-3" x1="1148.5" y1="2464.72" x2="1148.5" y2="25.02" gradientUnits="userSpaceOnUse"><stop offset="0.07"/><stop offset="0.09" stop-color="#020202"/><stop offset="0.1" stop-color="#090909"/><stop offset="0.11" stop-color="#141414"/><stop offset="0.11" stop-color="#252525"/><stop offset="0.11" stop-color="#3b3b3b"/><stop offset="0.12" stop-color="#565656"/><stop offset="0.12" stop-color="#595959"/><stop offset="0.12" stop-color="#4b4b4b"/><stop offset="0.13" stop-color="#2c2c2c"/><stop offset="0.13" stop-color="#191919"/><stop offset="0.14" stop-color="#121212"/><stop offset="0.18"/><stop offset="0.19" stop-color="#040404"/><stop offset="0.2" stop-color="#101010"/><stop offset="0.21" stop-color="#232323"/><stop offset="0.21" stop-color="#2b2b2b"/><stop offset="0.22" stop-color="#202020"/><stop offset="0.23" stop-color="#171717"/><stop offset="0.24" stop-color="#141414"/><stop offset="0.71" stop-color="#010101"/><stop offset="0.73" stop-color="#030303"/><stop offset="0.74" stop-color="#0c0c0c"/><stop offset="0.75" stop-color="#1a1a1a"/><stop offset="0.76" stop-color="#141414"/><stop offset="0.78" stop-color="#050505"/><stop offset="0.79"/><stop offset="0.82" stop-color="#020202"/><stop offset="0.83" stop-color="#090909"/><stop offset="0.84" stop-color="#141414"/><stop offset="0.84" stop-color="#171717"/><stop offset="0.88"/><stop offset="0.93"/><stop offset="0.98" stop-color="#3b3b3b"/><stop offset="1"/></linearGradient><clipPath id="clip-path" transform="translate(289.99 191.87)"><rect x="156.87" y="72.57" width="1996.54" height="297.85"/></clipPath><linearGradient id="linear-gradient-4" x1="1022.24" y1="476.6" x2="1022.24" y2="313.43" gradientUnits="userSpaceOnUse"><stop offset="0"/><stop offset="0.12" stop-color="#f6cf80"/><stop offset="0.16" stop-color="#a67727"/><stop offset="0.18" stop-color="#ae8030"/><stop offset="0.2" stop-color="#c49848"/><stop offset="0.23" stop-color="#e7bf70"/><stop offset="0.24" stop-color="#f6cf80"/><stop offset="0.35" stop-color="#d09b6b"/><stop offset="0.47" stop-color="#f6cf80"/><stop offset="0.55" stop-color="#d09b6b"/><stop offset="0.61" stop-color="#bf9343"/><stop offset="0.68" stop-color="#f6cf80"/><stop offset="0.72" stop-color="#a67727"/><stop offset="0.79" stop-color="#f6cf80"/><stop offset="0.88" stop-color="#d09b6b"/><stop offset="1" stop-color="#f6cf80"/></linearGradient><radialGradient id="radial-gradient" cx="1022.24" cy="395.02" r="81.59" gradientUnits="userSpaceOnUse"><stop offset="0" stop-color="#fff"/><stop offset="0.23" stop-color="#fdfdfd"/><stop offset="0.36" stop-color="#f5f4f4"/><stop offset="0.47" stop-color="#e9e6e6"/><stop offset="0.56" stop-color="#d7d2d2"/><stop offset="0.65" stop-color="#c0b8b8"/><stop offset="0.73" stop-color="#a39999"/><stop offset="0.81" stop-color="#817373"/><stop offset="0.88" stop-color="#5a4747"/><stop offset="0.94" stop-color="#2e1717"/><stop offset="0.97" stop-color="#1a0000"/></radialGradient><radialGradient id="radial-gradient-2" cx="1255.9" cy="-3733.07" r="46.05" gradientTransform="matrix(1, -0.05, 0.02, 0.48, -108.89, 2268.89)" gradientUnits="userSpaceOnUse"><stop offset="0.3" stop-color="#916300"/><stop offset="0.31" stop-color="#956909"/><stop offset="0.34" stop-color="#a98537"/><stop offset="0.37" stop-color="#bb9f62"/><stop offset="0.4" stop-color="#ccb688"/><stop offset="0.44" stop-color="#dacaa8"/><stop offset="0.48" stop-color="#e5dbc4"/><stop offset="0.53" stop-color="#efe8da"/><stop offset="0.58" stop-color="#f6f2eb"/><stop offset="0.65" stop-color="#fbfaf6"/><stop offset="0.74" stop-color="#fefefd"/><stop offset="1" stop-color="#fff"/></radialGradient><linearGradient id="linear-gradient-5" x1="3792.66" y1="4590.28" x2="3792.66" y2="4354.56" gradientTransform="translate(-3879.31 -324.84) rotate(-45)" gradientUnits="userSpaceOnUse"><stop offset="0"/><stop offset="0.1" stop-color="#f6cf80"/><stop offset="0.16" stop-color="#ecd7ac"/><stop offset="0.22" stop-color="#e8d9ba"/><stop offset="0.23" stop-color="#e5d2b1"/><stop offset="0.24" stop-color="#debf99"/><stop offset="0.26" stop-color="#d2a071"/><stop offset="0.26" stop-color="#d09b6b"/><stop offset="0.34" stop-color="#f6cf80"/><stop offset="0.41" stop-color="#e8d9ba"/><stop offset="0.42" stop-color="#ead7b1"/><stop offset="0.45" stop-color="#f0d399"/><stop offset="0.47" stop-color="#f6cf80"/><stop offset="0.5" stop-color="#d09b6b"/><stop offset="0.55" stop-color="#e8d9ba"/><stop offset="0.55" stop-color="#e5d4b1"/><stop offset="0.57" stop-color="#ddc599"/><stop offset="0.59" stop-color="#cfae71"/><stop offset="0.61" stop-color="#bf9343"/><stop offset="0.61" stop-color="#f6cf80"/><stop offset="0.67" stop-color="#e8d9ba"/><stop offset="0.68" stop-color="#e4d3b1"/><stop offset="0.69" stop-color="#d9c399"/><stop offset="0.7" stop-color="#c7a871"/><stop offset="0.72" stop-color="#af843a"/><stop offset="0.72" stop-color="#a67727"/><stop offset="0.74" stop-color="#f6cf80"/><stop offset="0.8" stop-color="#e8d9ba"/><stop offset="0.81" stop-color="#e5d2b1"/><stop offset="0.83" stop-color="#debf99"/><stop offset="0.85" stop-color="#d2a071"/><stop offset="0.85" stop-color="#d09b6b"/><stop offset="0.88" stop-color="#f6cf80"/></linearGradient><radialGradient id="radial-gradient-3" cx="3792.66" cy="4472.42" r="117.86" gradientTransform="translate(-3879.31 -324.84) rotate(-45)" gradientUnits="userSpaceOnUse"><stop offset="0" stop-color="#fff"/><stop offset="0.37" stop-color="#fdfdfd"/><stop offset="0.51" stop-color="#f7f6f6"/><stop offset="0.6" stop-color="#edebeb"/><stop offset="0.68" stop-color="#dddada"/><stop offset="0.75" stop-color="#cac4c4"/><stop offset="0.8" stop-color="#b1a8a8"/><stop offset="0.86" stop-color="#948888"/><stop offset="0.91" stop-color="#726262"/><stop offset="0.95" stop-color="#4b3737"/><stop offset="0.99" stop-color="#220909"/><stop offset="1" stop-color="#1a0000"/></radialGradient><radialGradient id="radial-gradient-4" cx="3792.66" cy="42821.19" r="312.25" gradientTransform="translate(-7655.78 -4101.32) rotate(-45) scale(1 0.23)" gradientUnits="userSpaceOnUse"><stop offset="0.1" stop-color="#683c11"/><stop offset="0.16" stop-color="#ecd7ac"/><stop offset="0.22" stop-color="#683c11"/><stop offset="0.23" stop-color="#714419"/><stop offset="0.24" stop-color="#895a2e"/><stop offset="0.25" stop-color="#b17e50"/><stop offset="0.26" stop-color="#d09b6b"/><stop offset="0.34" stop-color="#f6cf80"/><stop offset="0.41" stop-color="#1d1d1b"/><stop offset="0.41" stop-color="#26241f"/><stop offset="0.42" stop-color="#3e382b"/><stop offset="0.44" stop-color="#66593d"/><stop offset="0.45" stop-color="#9d8657"/><stop offset="0.47" stop-color="#e3bf77"/><stop offset="0.47" stop-color="#f6cf80"/><stop offset="0.5" stop-color="#d09b6b"/><stop offset="0.55" stop-color="#e8d9ba"/><stop offset="0.55" stop-color="#e5d4b1"/><stop offset="0.57" stop-color="#ddc599"/><stop offset="0.59" stop-color="#cfae71"/><stop offset="0.61" stop-color="#bf9343"/><stop offset="0.61" stop-color="#1d1d1b"/><stop offset="0.67" stop-color="#e8d9ba"/><stop offset="0.68" stop-color="#e4d3b1"/><stop offset="0.69" stop-color="#d9c399"/><stop offset="0.7" stop-color="#c7a871"/><stop offset="0.72" stop-color="#af843a"/><stop offset="0.72" stop-color="#a67727"/><stop offset="0.74" stop-color="#1d1d1b"/><stop offset="0.85" stop-color="#d09b6b"/><stop offset="0.88" stop-color="#432918"/></radialGradient><linearGradient id="linear-gradient-6" x1="524.44" y1="37.96" x2="691.24" y2="37.96" gradientUnits="userSpaceOnUse"><stop offset="0" stop-color="#94ceeb"/><stop offset="0.16" stop-color="#946beb"/><stop offset="1" stop-color="#7dc3ff"/></linearGradient><linearGradient id="linear-gradient-7" x1="607.84" y1="121.35" x2="607.84" y2="-45.44" gradientUnits="userSpaceOnUse"><stop offset="0.08" stop-color="#fff"/><stop offset="0.18" stop-color="#009fe3"/><stop offset="0.24" stop-color="#fff"/><stop offset="0.34" stop-color="#009fe3"/><stop offset="0.39" stop-color="#fff"/><stop offset="0.44" stop-color="#009fe3"/><stop offset="0.51" stop-color="#fff"/><stop offset="0.61" stop-color="#009fe3"/><stop offset="0.68" stop-color="#fff"/><stop offset="0.76" stop-color="#009fe3"/><stop offset="0.84" stop-color="#fff"/><stop offset="0.9" stop-color="#009fe3"/><stop offset="1" stop-color="#7dc3ff"/></linearGradient><radialGradient id="radial-gradient-5" cx="622.19" cy="30.13" r="92.35" gradientUnits="userSpaceOnUse"><stop offset="0" stop-color="#fff"/><stop offset="0.24" stop-color="#fdfdfd"/><stop offset="0.37" stop-color="#f4f4f6"/><stop offset="0.48" stop-color="#e6e6eb"/><stop offset="0.58" stop-color="#d2d2da"/><stop offset="0.67" stop-color="#b8b8c5"/><stop offset="0.75" stop-color="#9999ab"/><stop offset="0.83" stop-color="#73738c"/><stop offset="0.9" stop-color="#474768"/><stop offset="0.97" stop-color="#171741"/><stop offset="1" stop-color="#00002e"/></radialGradient><radialGradient id="radial-gradient-6" cx="-81.56" cy="-4641.83" r="47.08" gradientTransform="matrix(0.99, 0.14, -0.06, 0.48, 361.41, 2310.36)" gradientUnits="userSpaceOnUse"><stop offset="0.3" stop-color="#2d2e83"/><stop offset="0.31" stop-color="#393a8a"/><stop offset="0.34" stop-color="#6263a2"/><stop offset="0.38" stop-color="#8889b9"/><stop offset="0.42" stop-color="#a8a9cc"/><stop offset="0.46" stop-color="#c4c4dc"/><stop offset="0.51" stop-color="#dadae9"/><stop offset="0.56" stop-color="#ebebf3"/><stop offset="0.63" stop-color="#f6f6fa"/><stop offset="0.73" stop-color="#fdfdfe"/><stop offset="1" stop-color="#fff"/></radialGradient><radialGradient id="radial-gradient-7" cx="117.23" cy="215.35" r="407.22" gradientTransform="translate(186.61 -19.82) rotate(45)" gradientUnits="userSpaceOnUse"><stop offset="0.69" stop-color="#ffba00"/><stop offset="0.69" stop-color="#f6b300"/><stop offset="0.7" stop-color="#c89200"/><stop offset="0.72" stop-color="#9d7200"/><stop offset="0.73" stop-color="#775700"/><stop offset="0.74" stop-color="#573f00"/><stop offset="0.76" stop-color="#3b2b00"/><stop offset="0.77" stop-color="#251b00"/><stop offset="0.79" stop-color="#140f00"/><stop offset="0.82" stop-color="#090600"/><stop offset="0.85" stop-color="#020100"/><stop offset="0.95"/></radialGradient><radialGradient id="radial-gradient-8" cx="117.23" cy="215.34" r="271.99" gradientTransform="translate(186.61 -19.82) rotate(45)" gradientUnits="userSpaceOnUse"><stop offset="0.43" stop-color="#fcea10"/><stop offset="0.59" stop-color="#fce50e"/><stop offset="0.76" stop-color="#fdd80a"/><stop offset="0.95" stop-color="#ffc203"/><stop offset="1" stop-color="#ffba00"/></radialGradient><radialGradient id="radial-gradient-9" cx="515.28" cy="272.1" r="56.75" gradientUnits="userSpaceOnUse"><stop offset="0.02" stop-color="#f2f2ed"/><stop offset="0.04" stop-color="#c6c6c2"/><stop offset="0.05" stop-color="#9d9d9a"/><stop offset="0.07" stop-color="#777775"/><stop offset="0.08" stop-color="#575755"/><stop offset="0.1" stop-color="#3b3b3a"/><stop offset="0.12" stop-color="#252525"/><stop offset="0.15" stop-color="#141414"/><stop offset="0.18" stop-color="#090908"/><stop offset="0.22" stop-color="#020202"/><stop offset="0.35"/></radialGradient><radialGradient id="radial-gradient-10" cx="1200.57" cy="177.33" r="56.75" xlink:href="#radial-gradient-9"/><radialGradient id="radial-gradient-11" cx="1553.44" cy="177.33" r="56.76" xlink:href="#radial-gradient-9"/><radialGradient id="radial-gradient-12" cx="847.69" cy="300.07" r="56.75" gradientTransform="translate(949.31 -593.41) rotate(77)" xlink:href="#radial-gradient-9"/><radialGradient id="radial-gradient-13" cx="1359.1" cy="290.84" r="56.75" xlink:href="#radial-gradient-9"/><radialGradient id="radial-gradient-14" cx="767.58" cy="177.33" r="56.75" xlink:href="#radial-gradient-9"/><radialGradient id="radial-gradient-15" cx="597.11" cy="201.19" r="56.75" gradientTransform="translate(663.94 -425.35) rotate(77.47)" xlink:href="#radial-gradient-9"/><radialGradient id="radial-gradient-16" cx="1659.13" cy="272.1" r="56.75" xlink:href="#radial-gradient-9"/><linearGradient id="linear-gradient-8" x1="1638.1" y1="2037.85" x2="1638.1" y2="1971.33" gradientUnits="userSpaceOnUse"><stop offset="0"/><stop offset="0.06" stop-color="#080808"/><stop offset="0.16" stop-color="#1f1f1f"/><stop offset="0.28" stop-color="#454545"/><stop offset="0.42" stop-color="#797979"/><stop offset="0.58" stop-color="#bbb"/><stop offset="0.66" stop-color="#e0e0e0"/><stop offset="1" stop-color="#939493"/></linearGradient><linearGradient id="linear-gradient-9" x1="1638.1" y1="2017.32" x2="1638.1" y2="1967.6" gradientUnits="userSpaceOnUse"><stop offset="0" stop-color="#f6f6f6"/><stop offset="0.39" stop-color="#939493"/><stop offset="0.5" stop-color="#8f908f"/><stop offset="0.6" stop-color="#848584"/><stop offset="0.7" stop-color="#717271"/><stop offset="0.79" stop-color="#575757"/><stop offset="0.89" stop-color="#343534"/><stop offset="0.98" stop-color="#0b0b0b"/><stop offset="1"/></linearGradient><linearGradient id="linear-gradient-10" x1="1590.68" y1="1991.31" x2="1638.11" y2="1991.31" gradientUnits="userSpaceOnUse"><stop offset="0" stop-color="#878787"/><stop offset="0.42" stop-color="#494949"/><stop offset="0.81" stop-color="#141414"/><stop offset="1"/></linearGradient><linearGradient id="linear-gradient-11" x1="1590.68" y1="1976.93" x2="1674.18" y2="1976.93" gradientUnits="userSpaceOnUse"><stop offset="0" stop-color="#878787"/><stop offset="0.39" stop-color="#1d1d1b"/><stop offset="0.62" stop-color="#191918"/><stop offset="0.84" stop-color="#0e0e0d"/><stop offset="1"/></linearGradient><linearGradient id="linear-gradient-12" x1="1590.68" y1="1973.51" x2="1638.11" y2="1973.51" xlink:href="#linear-gradient-10"/><linearGradient id="linear-gradient-13" x1="1488.67" y1="2037.85" x2="1488.67" y2="1971.33" xlink:href="#linear-gradient-8"/><linearGradient id="linear-gradient-14" x1="1488.67" y1="2017.32" x2="1488.67" y2="1967.6" xlink:href="#linear-gradient-9"/><linearGradient id="linear-gradient-15" x1="1441.25" y1="1991.31" x2="1488.68" y2="1991.31" xlink:href="#linear-gradient-10"/><linearGradient id="linear-gradient-16" x1="1441.25" y1="1976.93" x2="1524.75" y2="1976.93" xlink:href="#linear-gradient-11"/><linearGradient id="linear-gradient-17" x1="1441.25" y1="1973.51" x2="1488.68" y2="1973.51" xlink:href="#linear-gradient-10"/><linearGradient id="linear-gradient-18" x1="1339.25" y1="2037.85" x2="1339.25" y2="1971.33" xlink:href="#linear-gradient-8"/><linearGradient id="linear-gradient-19" x1="1339.24" y1="2017.32" x2="1339.24" y2="1967.6" xlink:href="#linear-gradient-9"/><linearGradient id="linear-gradient-20" x1="1291.82" y1="1991.31" x2="1339.25" y2="1991.31" xlink:href="#linear-gradient-10"/><linearGradient id="linear-gradient-21" x1="1291.82" y1="1976.93" x2="1375.33" y2="1976.93" xlink:href="#linear-gradient-11"/><linearGradient id="linear-gradient-22" x1="1291.82" y1="1973.51" x2="1339.25" y2="1973.51" xlink:href="#linear-gradient-10"/><linearGradient id="linear-gradient-23" x1="1736.45" y1="2124.52" x2="1736.45" y2="2057.24" xlink:href="#linear-gradient-8"/><linearGradient id="linear-gradient-24" x1="2026.44" y1="2295.62" x2="2026.44" y2="2245.34" xlink:href="#linear-gradient-9"/><linearGradient id="linear-gradient-25" x1="1688.49" y1="2077.45" x2="1736.45" y2="2077.45" xlink:href="#linear-gradient-10"/><linearGradient id="linear-gradient-26" x1="1688.49" y1="2062.9" x2="1772.94" y2="2062.9" xlink:href="#linear-gradient-11"/><linearGradient id="linear-gradient-27" x1="1688.49" y1="2059.44" x2="1736.45" y2="2059.44" xlink:href="#linear-gradient-10"/><linearGradient id="linear-gradient-28" x1="1585.32" y1="2124.52" x2="1585.32" y2="2057.24" xlink:href="#linear-gradient-8"/><linearGradient id="linear-gradient-29" x1="1875.31" y1="2295.62" x2="1875.31" y2="2245.34" xlink:href="#linear-gradient-9"/><linearGradient id="linear-gradient-30" x1="1537.36" y1="2077.45" x2="1585.32" y2="2077.45" xlink:href="#linear-gradient-10"/><linearGradient id="linear-gradient-31" x1="1537.36" y1="2062.9" x2="1621.81" y2="2062.9" xlink:href="#linear-gradient-11"/><linearGradient id="linear-gradient-32" x1="1537.36" y1="2059.44" x2="1585.32" y2="2059.44" xlink:href="#linear-gradient-10"/><linearGradient id="linear-gradient-33" x1="1434.19" y1="2124.52" x2="1434.19" y2="2057.24" xlink:href="#linear-gradient-8"/><linearGradient id="linear-gradient-34" x1="1434.2" y1="2103.75" x2="1434.2" y2="2053.47" xlink:href="#linear-gradient-9"/><linearGradient id="linear-gradient-35" x1="1386.23" y1="2077.45" x2="1434.19" y2="2077.45" xlink:href="#linear-gradient-10"/><linearGradient id="linear-gradient-36" x1="1386.23" y1="2062.9" x2="1470.68" y2="2062.9" xlink:href="#linear-gradient-11"/><linearGradient id="linear-gradient-37" x1="1386.23" y1="2059.44" x2="1434.19" y2="2059.44" xlink:href="#linear-gradient-10"/><linearGradient id="linear-gradient-38" x1="572.04" y1="2099.19" x2="572.04" y2="2017.93" xlink:href="#linear-gradient-8"/><linearGradient id="linear-gradient-39" x1="572.04" y1="2074.1" x2="572.04" y2="2013.38" xlink:href="#linear-gradient-9"/><linearGradient id="linear-gradient-40" x1="562.84" y1="1986.17" x2="581.23" y2="1986.17" gradientUnits="userSpaceOnUse"><stop offset="0"/><stop offset="0" stop-color="#040404"/><stop offset="0.06" stop-color="#383838"/><stop offset="0.11" stop-color="#656565"/><stop offset="0.17" stop-color="#8a8a8a"/><stop offset="0.22" stop-color="#a7a7a7"/><stop offset="0.28" stop-color="#bcbcbc"/><stop offset="0.33" stop-color="#c8c8c8"/><stop offset="0.38" stop-color="#ccc"/><stop offset="0.82" stop-color="#2f2f2f"/><stop offset="1" stop-color="#878787"/></linearGradient><linearGradient id="linear-gradient-41" x1="572.04" y1="2043.74" x2="572.04" y2="1928.6" gradientUnits="userSpaceOnUse"><stop offset="0" stop-color="#292929"/><stop offset="0.02" stop-color="#373737"/><stop offset="0.12" stop-color="#6b6b6b"/><stop offset="0.23" stop-color="#989898"/><stop offset="0.33" stop-color="#bdbdbd"/><stop offset="0.43" stop-color="#dadada"/><stop offset="0.53" stop-color="#efefef"/><stop offset="0.62" stop-color="#fbfbfb"/><stop offset="0.72" stop-color="#fff"/><stop offset="1" stop-color="#292929"/></linearGradient><linearGradient id="linear-gradient-42" x1="572.04" y1="1945.19" x2="572.04" y2="1818.31" gradientUnits="userSpaceOnUse"><stop offset="0" stop-color="#940000"/><stop offset="0.01" stop-color="#960100"/><stop offset="0.23" stop-color="#b31300"/><stop offset="0.45" stop-color="#c81f00"/><stop offset="0.67" stop-color="#d52600"/><stop offset="0.87" stop-color="#d92900"/><stop offset="1" stop-color="#cc3b13"/></linearGradient><radialGradient id="radial-gradient-17" cx="572.04" cy="1881.75" r="63.44" gradientUnits="userSpaceOnUse"><stop offset="0" stop-color="#4d4d4d"/><stop offset="0.28" stop-color="#4a4a4a"/><stop offset="0.49" stop-color="#404040"/><stop offset="0.68" stop-color="#303030"/><stop offset="0.85" stop-color="#1a1a1a"/><stop offset="1"/></radialGradient><radialGradient id="radial-gradient-18" cx="572.04" cy="1932.89" r="33.96" gradientUnits="userSpaceOnUse"><stop offset="0" stop-color="#575756"/><stop offset="0.19" stop-color="#525251"/><stop offset="0.42" stop-color="#444443"/><stop offset="0.67" stop-color="#2c2c2c"/><stop offset="0.92" stop-color="#0b0b0b"/><stop offset="1"/></radialGradient><radialGradient id="radial-gradient-19" cx="2478.91" cy="2266.1" r="33.96" gradientTransform="translate(3783.51 1023.1) rotate(123.26)" gradientUnits="userSpaceOnUse"><stop offset="0" stop-color="#878787"/><stop offset="0.15" stop-color="#828282"/><stop offset="0.33" stop-color="#747474"/><stop offset="0.52" stop-color="#5c5c5c"/><stop offset="0.72" stop-color="#3b3b3b"/><stop offset="0.93" stop-color="#111"/><stop offset="1"/></radialGradient><linearGradient id="linear-gradient-43" x1="627.6" y1="1908.23" x2="627.6" y2="1859.64" gradientUnits="userSpaceOnUse"><stop offset="0"/><stop offset="0.2" stop-color="#040404"/><stop offset="0.42" stop-color="#111"/><stop offset="0.65" stop-color="#272727"/><stop offset="0.88" stop-color="#454544"/><stop offset="1" stop-color="#575756"/></linearGradient><linearGradient id="linear-gradient-44" x1="627.44" y1="1908.23" x2="627.44" y2="1859.64" xlink:href="#linear-gradient-43"/><linearGradient id="linear-gradient-45" x1="621.31" y1="1908.22" x2="621.31" y2="1859.64" xlink:href="#linear-gradient-43"/><linearGradient id="linear-gradient-46" x1="623.61" y1="1908.24" x2="623.61" y2="1859.63" xlink:href="#linear-gradient-43"/><linearGradient id="linear-gradient-47" x1="497.42" y1="1976.28" x2="497.42" y2="1947.05" gradientTransform="matrix(-0.92, -0.82, -0.93, 1.06, 2819.12, 174.44)" gradientUnits="userSpaceOnUse"><stop offset="0"/><stop offset="0.53" stop-color="#787878"/><stop offset="1" stop-color="#e0e0e0"/></linearGradient><linearGradient id="linear-gradient-48" x1="497.33" y1="1976.28" x2="497.33" y2="1947.06" xlink:href="#linear-gradient-47"/><linearGradient id="linear-gradient-49" x1="493.64" y1="1976.28" x2="493.64" y2="1947.06" xlink:href="#linear-gradient-47"/><linearGradient id="linear-gradient-50" x1="495.02" y1="1976.28" x2="495.02" y2="1947.07" xlink:href="#linear-gradient-47"/><radialGradient id="radial-gradient-20" cx="1027.75" cy="2172.74" r="31.29" gradientTransform="matrix(0.54, 0.38, -0.58, 0.81, 1248.13, -305.27)" gradientUnits="userSpaceOnUse"><stop offset="0" stop-color="#707070"/><stop offset="0" stop-color="#6f6f6f"/><stop offset="0.13" stop-color="#4d4d4d"/><stop offset="0.26" stop-color="#313131"/><stop offset="0.4" stop-color="#1b1b1b"/><stop offset="0.56" stop-color="#0c0c0c"/><stop offset="0.74" stop-color="#030303"/><stop offset="1"/></radialGradient><radialGradient id="radial-gradient-21" cx="-2278.75" cy="774.03" r="23.63" gradientTransform="matrix(0.35, -0.09, 0.19, 0.74, 1277, 1080.4)" gradientUnits="userSpaceOnUse"><stop offset="0" stop-color="#c2c2c2"/><stop offset="0.12" stop-color="#979797"/><stop offset="0.27" stop-color="#696969"/><stop offset="0.42" stop-color="#434343"/><stop offset="0.57" stop-color="#262626"/><stop offset="0.72" stop-color="#111"/><stop offset="0.86" stop-color="#040404"/><stop offset="1"/></radialGradient><linearGradient id="linear-gradient-51" x1="385.48" y1="2561.46" x2="385.48" y2="2432.3" gradientTransform="translate(238.21 185.04) scale(0.87 0.67)" gradientUnits="userSpaceOnUse"><stop offset="0"/><stop offset="0.13" stop-color="#040404"/><stop offset="0.26" stop-color="#111"/><stop offset="0.4" stop-color="#272727"/><stop offset="0.55" stop-color="#454545"/><stop offset="0.69" stop-color="#6d6d6d"/><stop offset="0.84" stop-color="#9c9c9c"/><stop offset="0.99" stop-color="#d4d4d4"/><stop offset="1" stop-color="#d8d8d8"/></linearGradient><linearGradient id="linear-gradient-52" x1="385.48" y1="2529.38" x2="385.48" y2="2432.3" gradientTransform="translate(238.21 185.04) scale(0.87 0.67)" gradientUnits="userSpaceOnUse"><stop offset="0" stop-color="#3c3c3b"/><stop offset="1" stop-color="#1d1d1b"/></linearGradient></defs><g class="cls-1"><g id="Layer_2" data-name="Layer 2"><g id="Layer_1-2" data-name="Layer 1"><path d="M2107.1,648.35c0-21.52,10.25-34.82,10.25-34.82L2275.61,408.6S2297,380.47,2297,354.52V60.26h-75.63c-1.63-31.57-24.11-56.59-51.61-56.59-25.56,0-89.82,42.5-103,56.59H230.27c-13.2-14.09-77.47-56.59-103-56.59-27.5,0-50,25-51.61,56.59H0V354.52c0,26,21.39,54.09,21.39,54.09L179.66,613.53s10.24,13.3,10.24,34.82v631.77h0v631.76c0,21.52-10.24,34.82-10.24,34.82L21.39,2151.62S0,2179.76,0,2205.71V2500H2297V2205.71c0-25.95-21.39-54.09-21.39-54.09L2117.35,1946.7s-10.25-13.3-10.25-34.82V648.35Z" transform="translate(289.99 191.87)"/><path class="cls-2" d="M265.41,1280.12V648.35c0-21.52-10.24-34.82-10.24-34.82L96.9,408.61s-21.39-28.14-21.39-54.09V60.26h.12C77.26,28.69,99.74,3.67,127.24,3.67c25.56,0,89.83,42.5,103,56.59h2.4C232.67,53.06,155.79,0,127.24,0H51.7C23.15,0,0,27,0,60.26V354.52c0,26,21.39,54.09,21.39,54.09L179.66,613.53s10.24,13.3,10.24,34.82v631.77h0v631.76c0,21.52-10.24,34.82-10.24,34.82L21.39,2151.62S0,2179.76,0,2205.71V2500H75.51V2205.71c0-25.95,21.39-54.09,21.39-54.09L255.17,1946.7s10.24-13.3,10.24-34.82V1280.12Z" transform="translate(289.99 191.87)"/><path class="cls-3" d="M2031.59,1280.12V648.35c0-21.52,10.25-34.82,10.25-34.82L2200.1,408.61s21.39-28.14,21.39-54.09V60.26h-.12c-1.63-31.57-24.11-56.59-51.61-56.59-25.56,0-89.83,42.5-103,56.59h-2.4c0-7.2,76.88-60.26,105.43-60.26h75.54c28.56,0,51.7,27,51.7,60.26V354.52c0,26-21.39,54.09-21.39,54.09L2117.35,613.53s-10.25,13.3-10.25,34.82v631.77h0v631.76c0,21.52,10.25,34.82,10.25,34.82l158.26,204.92s21.39,28.14,21.39,54.09V2500h-75.51V2205.71c0-25.95-21.39-54.09-21.39-54.09L2041.84,1946.7s-10.25-13.3-10.25-34.82V1280.12Z" transform="translate(289.99 191.87)"/><path class="cls-4" d="M2009.25,648.35c0-21.52,9.2-34.82,9.2-34.82L2160.57,408.6s19.2-28.13,19.2-54.08V60.26H117.23V354.52c0,26,19.2,54.09,19.2,54.09L278.55,613.53s9.2,13.3,9.2,34.82V1911.88c0,21.52-9.2,34.82-9.2,34.82L136.43,2151.62s-19.2,28.14-19.2,54.09V2500H2179.77V2205.71c0-25.95-19.2-54.09-19.2-54.09L2018.45,1946.7s-9.2-13.3-9.2-34.82V648.35Z" transform="translate(289.99 191.87)"/><rect x="446.86" y="264.44" width="1996.54" height="297.85"/><g class="cls-5"><path class="cls-6" d="M1103.83,395a81.59,81.59,0,1,1-81.59-81.59A81.59,81.59,0,0,1,1103.83,395Z" transform="translate(289.99 191.87)"/><path class="cls-7" d="M1103.83,395a81.59,81.59,0,1,1-81.59-81.59A81.59,81.59,0,0,1,1103.83,395Z" transform="translate(289.99 191.87)"/><path class="cls-8" d="M1106.89,417.43c.57,12.2-19.55,23.06-45,24.25s-46.47-7.71-47-19.9,19.55-23.06,44.95-24.26S1106.31,405.24,1106.89,417.43Z" transform="translate(289.99 191.87)"/><path class="cls-9" d="M2048.26,72.48a117.86,117.86,0,1,1-166.67,0A117.84,117.84,0,0,1,2048.26,72.48Z" transform="translate(289.99 191.87)"/><path class="cls-10" d="M2048.26,72.48a117.86,117.86,0,1,1-166.67,0A117.84,117.84,0,0,1,2048.26,72.48Z" transform="translate(289.99 191.87)"/><path class="cls-11" d="M2004.27,44.69a117.4,117.4,0,0,1,18.58,8.45c36.65-26.34,65.07-38.55,74.19-29.43,15.55,15.56-31,87.32-103.93,160.28s-144.73,119.5-160.29,103.94c-9.12-9.12,3.08-37.54,29.44-74.19a115.68,115.68,0,0,1-8.46-18.58c-58.14,70.42-89.17,129-73.17,145,21.7,21.71,121.82-43.21,223.6-145s166.7-201.9,145-223.61C2133.24-44.47,2074.69-13.45,2004.27,44.69Z" transform="translate(289.99 191.87)"/><path class="cls-12" d="M691.24,38a83.4,83.4,0,1,1-83.4-83.4A83.39,83.39,0,0,1,691.24,38Z" transform="translate(289.99 191.87)"/><path class="cls-13" d="M691.24,38a83.4,83.4,0,1,1-83.4-83.4A83.39,83.39,0,0,1,691.24,38Z" transform="translate(289.99 191.87)"/><path class="cls-14" d="M691.24,38a83.4,83.4,0,1,1-83.4-83.4A83.39,83.39,0,0,1,691.24,38Z" transform="translate(289.99 191.87)"/><path class="cls-15" d="M628.5,98.05c-1.69,12.36-23.94,19.54-49.7,16s-45.28-16.39-43.59-28.75,23.94-19.54,49.7-16S630.18,85.69,628.5,98.05Z" transform="translate(289.99 191.87)"/><circle class="cls-16" cx="117.23" cy="215.34" r="407.22" transform="translate(172.05 337.84) rotate(-45)"/><circle class="cls-17" cx="117.23" cy="215.34" r="271.99" transform="translate(172.05 337.84) rotate(-45)"/></g><path class="cls-18" d="M572,272.1a56.76,56.76,0,1,1-56.76-56.76A56.75,56.75,0,0,1,572,272.1Z" transform="translate(289.99 191.87)"/><path class="cls-19" d="M1257.32,177.33a56.76,56.76,0,1,1-56.75-56.76A56.75,56.75,0,0,1,1257.32,177.33Z" transform="translate(289.99 191.87)"/><path class="cls-20" d="M1610.2,177.33a56.76,56.76,0,1,1-56.77-56.76A56.76,56.76,0,0,1,1610.2,177.33Z" transform="translate(289.99 191.87)"/><circle class="cls-21" cx="847.69" cy="300.07" r="56.75" transform="translate(654.56 1250.36) rotate(-77)"/><path class="cls-22" d="M1415.86,290.84a56.76,56.76,0,1,1-56.75-56.76A56.75,56.75,0,0,1,1415.86,290.84Z" transform="translate(289.99 191.87)"/><path class="cls-23" d="M824.33,177.33a56.76,56.76,0,1,1-56.75-56.76A56.75,56.75,0,0,1,824.33,177.33Z" transform="translate(289.99 191.87)"/><circle class="cls-24" cx="597.11" cy="201.19" r="56.75" transform="translate(561.13 932.28) rotate(-77.47)"/><path class="cls-25" d="M1715.88,272.1a56.76,56.76,0,1,1-56.75-56.76A56.75,56.75,0,0,1,1715.88,272.1Z" transform="translate(289.99 191.87)"/><path class="cls-26" d="M1705.92,2005.78c0,18.37-30.36,33.26-67.81,33.26s-67.83-14.89-67.83-33.26,30.37-33.26,67.83-33.26S1705.92,1987.41,1705.92,2005.78Z" transform="translate(289.99 191.87)"/><path class="cls-27" d="M1705.92,2004.59c0,18.37-30.36,33.26-67.81,33.26s-67.83-14.89-67.83-33.26,30.37-33.26,67.83-33.26S1705.92,1986.22,1705.92,2004.59Z" transform="translate(289.99 191.87)"/><path class="cls-28" d="M1692,1992.46c0,13.73-24.12,24.86-53.86,24.86s-53.88-11.13-53.88-24.86,24.12-24.86,53.88-24.86S1692,1978.73,1692,1992.46Z" transform="translate(289.99 191.87)"/><path class="cls-29" d="M1688.29,1991.91c0,12.53-22.47,22.69-50.18,22.69s-50.19-10.16-50.19-22.69,22.47-22.68,50.19-22.68S1688.29,1979.38,1688.29,1991.91Z" transform="translate(289.99 191.87)"/><path class="cls-30" d="M1662.87,1973.51a101.42,101.42,0,0,0-49.53,0h-22.66v17.8c0,11.53,21.23,20.87,47.43,20.87s47.42-9.34,47.42-20.87v-17.8Z" transform="translate(289.99 191.87)"/><path class="cls-31" d="M1638.11,1970.44a96.41,96.41,0,0,0-24.77,3.07h-22.66v17.8c0,11.53,21.23,20.87,47.43,20.87Z" transform="translate(289.99 191.87)"/><path class="cls-32" d="M1685.53,1973.51c0,11.53-21.24,20.87-47.42,20.87s-47.43-9.34-47.43-20.87,21.23-20.87,47.43-20.87S1685.53,1962,1685.53,1973.51Z" transform="translate(289.99 191.87)"/><path class="cls-33" d="M1639.08,1993.89c-26.18,0-47.42-9.34-47.42-20.87,0-5.17,4.27-9.9,11.34-13.55-7.65,3.71-12.32,8.63-12.32,14,0,11.53,21.23,20.87,47.43,20.87,14.44,0,27.37-2.84,36.07-7.32C1665.51,1991.26,1653,1993.89,1639.08,1993.89Z" transform="translate(289.99 191.87)"/><path class="cls-34" d="M1638.11,1952.64c-26.2,0-47.43,9.35-47.43,20.87s21.23,20.87,47.43,20.87Z" transform="translate(289.99 191.87)"/><path class="cls-26" d="M1556.49,2005.78c0,18.37-30.36,33.26-67.81,33.26s-67.82-14.89-67.82-33.26,30.36-33.26,67.82-33.26S1556.49,1987.41,1556.49,2005.78Z" transform="translate(289.99 191.87)"/><path class="cls-35" d="M1556.49,2004.59c0,18.37-30.36,33.26-67.81,33.26s-67.82-14.89-67.82-33.26,30.36-33.26,67.82-33.26S1556.49,1986.22,1556.49,2004.59Z" transform="translate(289.99 191.87)"/><path class="cls-36" d="M1542.55,1992.46c0,13.73-24.12,24.86-53.87,24.86s-53.88-11.13-53.88-24.86,24.13-24.86,53.88-24.86S1542.55,1978.73,1542.55,1992.46Z" transform="translate(289.99 191.87)"/><path class="cls-29" d="M1538.87,1991.91c0,12.53-22.48,22.69-50.19,22.69s-50.19-10.16-50.19-22.69,22.47-22.68,50.19-22.68S1538.87,1979.38,1538.87,1991.91Z" transform="translate(289.99 191.87)"/><path class="cls-37" d="M1513.44,1973.51a101.42,101.42,0,0,0-49.53,0h-22.66v17.8c0,11.53,21.24,20.87,47.43,20.87s47.42-9.34,47.42-20.87v-17.8Z" transform="translate(289.99 191.87)"/><path class="cls-38" d="M1488.68,1970.44a96.47,96.47,0,0,0-24.77,3.07h-22.66v17.8c0,11.53,21.24,20.87,47.43,20.87Z" transform="translate(289.99 191.87)"/><path class="cls-39" d="M1536.1,1973.51c0,11.53-21.23,20.87-47.42,20.87s-47.43-9.34-47.43-20.87,21.24-20.87,47.43-20.87S1536.1,1962,1536.1,1973.51Z" transform="translate(289.99 191.87)"/><path class="cls-40" d="M1489.66,1993.89c-26.2,0-47.43-9.34-47.43-20.87,0-5.17,4.27-9.9,11.35-13.55-7.66,3.71-12.33,8.63-12.33,14,0,11.53,21.24,20.87,47.43,20.87,14.44,0,27.38-2.84,36.07-7.32C1516.08,1991.26,1503.57,1993.89,1489.66,1993.89Z" transform="translate(289.99 191.87)"/><path class="cls-41" d="M1488.68,1952.64c-26.19,0-47.43,9.35-47.43,20.87s21.24,20.87,47.43,20.87Z" transform="translate(289.99 191.87)"/><path class="cls-26" d="M1407.06,2005.78c0,18.37-30.36,33.26-67.81,33.26s-67.82-14.89-67.82-33.26,30.37-33.26,67.82-33.26S1407.06,1987.41,1407.06,2005.78Z" transform="translate(289.99 191.87)"/><path class="cls-42" d="M1407.06,2004.59c0,18.37-30.36,33.26-67.81,33.26s-67.82-14.89-67.82-33.26,30.37-33.26,67.82-33.26S1407.06,1986.22,1407.06,2004.59Z" transform="translate(289.99 191.87)"/><path class="cls-43" d="M1393.11,1992.46c0,13.73-24.11,24.86-53.86,24.86s-53.87-11.13-53.87-24.86,24.11-24.86,53.87-24.86S1393.11,1978.73,1393.11,1992.46Z" transform="translate(289.99 191.87)"/><path class="cls-29" d="M1389.43,1991.91c0,12.53-22.46,22.69-50.18,22.69s-50.19-10.16-50.19-22.69,22.47-22.68,50.19-22.68S1389.43,1979.38,1389.43,1991.91Z" transform="translate(289.99 191.87)"/><path class="cls-44" d="M1364,1973.51a101.46,101.46,0,0,0-49.54,0h-22.66v17.8c0,11.53,21.23,20.87,47.43,20.87s47.42-9.34,47.42-20.87v-17.8Z" transform="translate(289.99 191.87)"/><path class="cls-45" d="M1339.25,1970.44a96.53,96.53,0,0,0-24.77,3.07h-22.66v17.8c0,11.53,21.23,20.87,47.43,20.87Z" transform="translate(289.99 191.87)"/><path class="cls-46" d="M1386.67,1973.51c0,11.53-21.24,20.87-47.42,20.87s-47.43-9.34-47.43-20.87,21.23-20.87,47.43-20.87S1386.67,1962,1386.67,1973.51Z" transform="translate(289.99 191.87)"/><path class="cls-47" d="M1340.23,1993.89c-26.19,0-47.42-9.34-47.42-20.87,0-5.17,4.27-9.9,11.34-13.55-7.65,3.71-12.33,8.63-12.33,14,0,11.53,21.23,20.87,47.43,20.87,14.44,0,27.38-2.84,36.08-7.32C1366.65,1991.26,1354.14,1993.89,1340.23,1993.89Z" transform="translate(289.99 191.87)"/><path class="cls-48" d="M1339.25,1952.64c-26.2,0-47.43,9.35-47.43,20.87s21.23,20.87,47.43,20.87Z" transform="translate(289.99 191.87)"/><path class="cls-26" d="M1805,2092.07c0,18.59-30.71,33.65-68.59,33.65s-68.59-15.06-68.59-33.65,30.71-33.64,68.59-33.64S1805,2073.5,1805,2092.07Z" transform="translate(289.99 191.87)"/><path class="cls-49" d="M1805,2090.88c0,18.57-30.71,33.64-68.59,33.64s-68.59-15.07-68.59-33.64,30.71-33.64,68.59-33.64S1805,2072.29,1805,2090.88Z" transform="translate(289.99 191.87)"/><ellipse class="cls-50" cx="2026.44" cy="2270.48" rx="54.48" ry="25.14"/><ellipse class="cls-29" cx="2026.44" cy="2269.92" rx="50.76" ry="22.95"/><path class="cls-30" d="M1761.5,2059.45a102.44,102.44,0,0,0-50.1,0h-22.91v18c0,11.66,21.47,21.11,48,21.11s48-9.45,48-21.11v-18Z" transform="translate(289.99 191.87)"/><path class="cls-51" d="M1736.45,2056.34a97.26,97.26,0,0,0-25,3.11h-22.91v18c0,11.66,21.47,21.11,48,21.11Z" transform="translate(289.99 191.87)"/><path class="cls-32" d="M1784.41,2059.45c0,11.65-21.48,21.1-48,21.1s-48-9.45-48-21.1,21.47-21.12,48-21.12S1784.41,2047.78,1784.41,2059.45Z" transform="translate(289.99 191.87)"/><path class="cls-52" d="M1737.44,2080.06c-26.48,0-48-9.46-48-21.11,0-5.24,4.32-10,11.47-13.7-7.74,3.75-12.46,8.72-12.46,14.2,0,11.65,21.47,21.1,48,21.1,14.61,0,27.69-2.87,36.49-7.41C1764.17,2077.39,1751.51,2080.06,1737.44,2080.06Z" transform="translate(289.99 191.87)"/><path class="cls-53" d="M1736.45,2038.33c-26.49,0-48,9.45-48,21.12s21.47,21.1,48,21.1Z" transform="translate(289.99 191.87)"/><path class="cls-26" d="M1653.91,2092.07c0,18.59-30.71,33.65-68.59,33.65s-68.59-15.06-68.59-33.65,30.71-33.64,68.59-33.64S1653.91,2073.5,1653.91,2092.07Z" transform="translate(289.99 191.87)"/><path class="cls-54" d="M1653.91,2090.88c0,18.57-30.71,33.64-68.59,33.64s-68.59-15.07-68.59-33.64,30.71-33.64,68.59-33.64S1653.91,2072.29,1653.91,2090.88Z" transform="translate(289.99 191.87)"/><ellipse class="cls-55" cx="1875.31" cy="2270.48" rx="54.48" ry="25.14"/><ellipse class="cls-29" cx="1875.31" cy="2269.92" rx="50.76" ry="22.95"/><path class="cls-37" d="M1610.37,2059.45a102.44,102.44,0,0,0-50.1,0h-22.91v18c0,11.66,21.48,21.11,48,21.11s48-9.45,48-21.11v-18Z" transform="translate(289.99 191.87)"/><path class="cls-56" d="M1585.32,2056.34a97.26,97.26,0,0,0-25,3.11h-22.91v18c0,11.66,21.48,21.11,48,21.11Z" transform="translate(289.99 191.87)"/><path class="cls-39" d="M1633.29,2059.45c0,11.65-21.48,21.1-48,21.1s-48-9.45-48-21.1,21.48-21.12,48-21.12S1633.29,2047.78,1633.29,2059.45Z" transform="translate(289.99 191.87)"/><path class="cls-57" d="M1586.31,2080.06c-26.49,0-48-9.46-48-21.11,0-5.24,4.32-10,11.48-13.7-7.75,3.75-12.47,8.72-12.47,14.2,0,11.65,21.48,21.1,48,21.1,14.61,0,27.7-2.87,36.49-7.41C1613,2077.39,1600.39,2080.06,1586.31,2080.06Z" transform="translate(289.99 191.87)"/><path class="cls-58" d="M1585.32,2038.33c-26.48,0-48,9.45-48,21.12s21.48,21.1,48,21.1Z" transform="translate(289.99 191.87)"/><path class="cls-26" d="M1502.78,2092.07c0,18.59-30.71,33.65-68.59,33.65s-68.59-15.06-68.59-33.65,30.71-33.64,68.59-33.64S1502.78,2073.5,1502.78,2092.07Z" transform="translate(289.99 191.87)"/><path class="cls-59" d="M1502.78,2090.88c0,18.57-30.71,33.64-68.59,33.64s-68.59-15.07-68.59-33.64,30.71-33.64,68.59-33.64S1502.78,2072.29,1502.78,2090.88Z" transform="translate(289.99 191.87)"/><path class="cls-60" d="M1488.68,2078.61c0,13.88-24.39,25.14-54.49,25.14s-54.48-11.26-54.48-25.14,24.4-25.14,54.48-25.14S1488.68,2064.72,1488.68,2078.61Z" transform="translate(289.99 191.87)"/><path class="cls-29" d="M1485,2078.05c0,12.68-22.72,22.95-50.76,22.95s-50.76-10.27-50.76-22.95,22.73-23,50.76-23S1485,2065.38,1485,2078.05Z" transform="translate(289.99 191.87)"/><path class="cls-44" d="M1459.24,2059.45a102.44,102.44,0,0,0-50.1,0h-22.91v18c0,11.66,21.48,21.11,48,21.11s48-9.45,48-21.11v-18Z" transform="translate(289.99 191.87)"/><path class="cls-61" d="M1434.19,2056.34a97.26,97.26,0,0,0-25,3.11h-22.91v18c0,11.66,21.48,21.11,48,21.11Z" transform="translate(289.99 191.87)"/><path class="cls-46" d="M1482.16,2059.45c0,11.65-21.48,21.1-48,21.1s-48-9.45-48-21.1,21.48-21.12,48-21.12S1482.16,2047.78,1482.16,2059.45Z" transform="translate(289.99 191.87)"/><path class="cls-62" d="M1435.19,2080.06c-26.5,0-48-9.46-48-21.11,0-5.24,4.32-10,11.48-13.7-7.75,3.75-12.47,8.72-12.47,14.2,0,11.65,21.48,21.1,48,21.1,14.61,0,27.7-2.87,36.49-7.41C1461.91,2077.39,1449.26,2080.06,1435.19,2080.06Z" transform="translate(289.99 191.87)"/><path class="cls-63" d="M1434.19,2038.33c-26.48,0-48,9.45-48,21.12s21.48,21.1,48,21.1Z" transform="translate(289.99 191.87)"/><path class="cls-26" d="M654.87,2060c0,22.44-37.09,40.62-82.83,40.62S489.2,2082.45,489.2,2060s37.09-40.63,82.84-40.63S654.87,2037.57,654.87,2060Z" transform="translate(289.99 191.87)"/><path class="cls-64" d="M654.87,2058.56c0,22.44-37.09,40.63-82.83,40.63S489.2,2081,489.2,2058.56s37.09-40.63,82.84-40.63S654.87,2036.12,654.87,2058.56Z" transform="translate(289.99 191.87)"/><path class="cls-65" d="M637.84,2043.74c0,16.77-29.46,30.36-65.8,30.36s-65.8-13.59-65.8-30.36,29.46-30.36,65.8-30.36S637.84,2027,637.84,2043.74Z" transform="translate(289.99 191.87)"/><path class="cls-66" d="M633.33,2043.07c0,15.3-27.44,27.71-61.29,27.71s-61.3-12.41-61.3-27.71,27.44-27.71,61.3-27.71S633.33,2027.77,633.33,2043.07Z" transform="translate(289.99 191.87)"/><path class="cls-67" d="M562.84,1928.6v109.31c0,3.22,4.12,5.83,9.2,5.83s9.19-2.61,9.19-5.83V1928.6Z" transform="translate(289.99 191.87)"/><path class="cls-68" d="M562.84,1928.6v109.31c0,3.22,4.12,5.83,9.2,5.83s9.19-2.61,9.19-5.83V1928.6Z" transform="translate(289.99 191.87)"/><path class="cls-69" d="M635.47,1881.75A63.44,63.44,0,1,1,572,1818.31,63.44,63.44,0,0,1,635.47,1881.75Z" transform="translate(289.99 191.87)"/><path class="cls-70" d="M635.47,1881.75A63.44,63.44,0,1,1,572,1818.31,63.44,63.44,0,0,1,635.47,1881.75Z" transform="translate(289.99 191.87)"/><path class="cls-71" d="M572,1944a60.23,60.23,0,0,1-46.71-22.29,63,63,0,0,0,93.42,0,62.09,62.09,0,0,1-4.22,4.68A59.94,59.94,0,0,1,572,1944Z" transform="translate(289.99 191.87)"/><path class="cls-72" d="M519.84,1847.12a59.93,59.93,0,0,1,38-25.88,58,58,0,0,1,6.23-1,63,63,0,0,0-51.23,78.13,62.8,62.8,0,0,1-1.6-6.1,59.95,59.95,0,0,1,8.58-45.18Z" transform="translate(289.99 191.87)"/><g class="cls-73"><path class="cls-74" d="M632,1887.13l-5.07.81a30.54,30.54,0,0,1-3.73,14.77l1.88,3.1C628.86,1901.38,631.23,1894.62,632,1887.13Z" transform="translate(289.99 191.87)"/><path class="cls-75" d="M627.88,1860.52l-5.28,9.87a31.78,31.78,0,0,1,4.28,14.86l5.37-1.88A52,52,0,0,0,627.88,1860.52Z" transform="translate(289.99 191.87)"/><path class="cls-76" d="M621.82,1871.86c-1.76,3.29-3.52,6.57-5.27,9.87,1.8.78,3.27,2.88,4.15,5.68l5.38-1.88A28.75,28.75,0,0,0,621.82,1871.86Z" transform="translate(289.99 191.87)"/><path class="cls-77" d="M622.92,1902.25a30,30,0,0,0,3.25-14.2c-1.69.28-3.38.54-5.08.81a23.77,23.77,0,0,1-.05,10.28C621.67,1900.17,622.29,1901.21,622.92,1902.25Z" transform="translate(289.99 191.87)"/></g><g class="cls-73"><path class="cls-78" d="M531.94,1841l2.38,3a28.84,28.84,0,0,0-6.19,11.25l-2.78,1C525.72,1851.57,528.19,1846.1,531.94,1841Z" transform="translate(289.99 191.87)"/><path class="cls-79" d="M549.11,1826.05l-2.58,8.89a29.61,29.61,0,0,0-10.69,7.35l-1.93-3.86A49.31,49.31,0,0,1,549.11,1826.05Z" transform="translate(289.99 191.87)"/><path class="cls-80" d="M546.14,1836.27l-2.58,8.89c-1.44-.39-3.43.22-5.49,1.57-.65-1.29-1.29-2.58-1.94-3.86A26.49,26.49,0,0,1,546.14,1836.27Z" transform="translate(289.99 191.87)"/><path class="cls-81" d="M528.55,1855.06a28.27,28.27,0,0,1,6.12-10.63l2.37,3a22.79,22.79,0,0,0-5.71,6.58Z" transform="translate(289.99 191.87)"/></g><path class="cls-82" d="M556.44,1869.31c-10,14.09-25.66,20.15-34.93,13.56s-8.66-23.36,1.36-37.44,25.66-20.15,34.93-13.56S566.46,1855.23,556.44,1869.31Z" transform="translate(289.99 191.87)"/><path class="cls-83" d="M627.1,1857.2c2.47,9.66.73,18.45-3.88,19.62s-10.35-5.69-12.82-15.35-.74-18.45,3.87-19.63S624.62,1847.53,627.1,1857.2Z" transform="translate(289.99 191.87)"/><path class="cls-84" d="M629.14,1870.55c0,27.77-25.57,36.56-57.1,36.56s-57.1-8.79-57.1-36.56,25.56-50.28,57.1-50.28S629.14,1842.78,629.14,1870.55Z" transform="translate(289.99 191.87)"/><path class="cls-85" d="M620.72,1858.07c0,20.87-21.8,27.47-48.68,27.47s-48.68-6.6-48.68-27.47,21.79-37.8,48.68-37.8S620.72,1837.19,620.72,1858.07Z" transform="translate(289.99 191.87)"/></g></g></g></svg>